# xmcd CD database file
#
# Track frame offsets:
#	150
#	38078
#	79886
#	82969
#	108750
#	124458
#	134682
#	153823
#	171307
#	194017
#	198866
#	205074
#	231130
#	256144
#	265032
#	273552
#
# Disc length: 4321 seconds
#
# Revision: 0
# Processed by: cddbd v1.5.2PL0 Copyright (c) Steve Scherf et al.
# Submitted via: CDex 1.51
#
DISCID=dc10df10
DTITLE=Michalis Siganidis and F.M.S. - Oi Alloi
DYEAR=2009
DGENRE=Jazz
TTITLE0=To Proi kai To Vrady - Miltos Saxtouris
TTITLE1=Quattrocento Quattordici Milla Baci - Alkinoos Ioannidis and Michalis Siganidis
TTITLE2=Min Apelpizesai KARAOKE - Alkinoos Ioannidis
TTITLE3=Kyrie - Miltos Saxtoyris
TTITLE4=To Tranzistor - Alkinoos Ioannidis
TTITLE5=Den Einai O Oidipodas - Linos Ioannidis
TTITLE6=O Filaretos - Victoria Velicova
TTITLE7=Chercher la Mame - Michalis Siganidis
TTITLE8=O Trelos Lagos - Miltos Saxtouris
TTITLE9=Ena Proi - Alkinoos Ioannidis
TTITLE10=Onos - Instrumental
TTITLE11=SKG est Fatiguee - Alkinoos Ioannidis and Michalis Siganidis
TTITLE12=O daimonas - Instrumental
TTITLE13=Teleiono - Nikos Koumarias
TTITLE14=Kai Mono Pou Me Koitas Liono - Victoria Velicova
TTITLE15=Thelo Na Eimai Kolopaido - Alkinoos Ioannidis and Savvina Giannatou and Michalis Siganidis
EXTD=YEAR: 2009
EXTT0=
EXTT1=
EXTT2=
EXTT3=
EXTT4=
EXTT5=
EXTT6=
EXTT7=
EXTT8=
EXTT9=
EXTT10=
EXTT11=
EXTT12=
EXTT13=
EXTT14=
EXTT15=
PLAYORDER=
